<?xml version="1.0" encoding="utf-8"?>
<!-- Generator: Adobe Illustrator 19.0.0, SVG Export Plug-In . SVG Version: 6.00 Build 0)  -->
<svg version="1.1" id="Layer_1" xmlns="http://www.w3.org/2000/svg" x="0px" y="0px"
	 viewBox="0 0 96 96" style="enable-background:new 0 0 96 96;" xml:space="preserve">
<style type="text/css">
	.st0{fill:#333333;}
</style>
<g id="XMLID_2_">
	<path id="XMLID_15_" class="st0" d="M31.5,66.3v-3.7c0-0.5-0.2-0.9-0.5-1.3s-0.8-0.5-1.3-0.5H26c-0.5,0-0.9,0.2-1.3,0.5
		s-0.5,0.8-0.5,1.3v3.7c0,0.5,0.2,0.9,0.5,1.3s0.8,0.5,1.3,0.5h3.7c0.5,0,0.9-0.2,1.3-0.5S31.5,66.8,31.5,66.3z M31.5,55.3v-3.7
		c0-0.5-0.2-0.9-0.5-1.3s-0.8-0.5-1.3-0.5H26c-0.5,0-0.9,0.2-1.3,0.5s-0.5,0.8-0.5,1.3v3.7c0,0.5,0.2,0.9,0.5,1.3s0.8,0.5,1.3,0.5
		h3.7c0.5,0,0.9-0.2,1.3-0.5S31.5,55.8,31.5,55.3z M31.5,44.3v-3.7c0-0.5-0.2-0.9-0.5-1.3c-0.4-0.4-0.8-0.5-1.3-0.5H26
		c-0.5,0-0.9,0.2-1.3,0.5c-0.4,0.4-0.5,0.8-0.5,1.3v3.7c0,0.5,0.2,0.9,0.5,1.3s0.8,0.5,1.3,0.5h3.7c0.5,0,0.9-0.2,1.3-0.5
		S31.5,44.8,31.5,44.3z M60.8,66.3V51.7c0-0.5-0.2-0.9-0.5-1.3s-0.8-0.5-1.3-0.5H37c-0.5,0-0.9,0.2-1.3,0.5s-0.5,0.8-0.5,1.3v14.7
		c0,0.5,0.2,0.9,0.5,1.3s0.8,0.5,1.3,0.5h22c0.5,0,0.9-0.2,1.3-0.5S60.8,66.8,60.8,66.3z M31.5,33.3v-3.7c0-0.5-0.2-0.9-0.5-1.3
		c-0.4-0.4-0.8-0.5-1.3-0.5H26c-0.5,0-0.9,0.2-1.3,0.5c-0.4,0.4-0.5,0.8-0.5,1.3v3.7c0,0.5,0.2,0.9,0.5,1.3s0.8,0.5,1.3,0.5h3.7
		c0.5,0,0.9-0.2,1.3-0.5S31.5,33.8,31.5,33.3z M71.8,66.3v-3.7c0-0.5-0.2-0.9-0.5-1.3s-0.8-0.5-1.3-0.5h-3.7c-0.5,0-0.9,0.2-1.3,0.5
		s-0.5,0.8-0.5,1.3v3.7c0,0.5,0.2,0.9,0.5,1.3s0.8,0.5,1.3,0.5H70c0.5,0,0.9-0.2,1.3-0.5S71.8,66.8,71.8,66.3z M60.8,44.3V29.7
		c0-0.5-0.2-0.9-0.5-1.3c-0.4-0.4-0.8-0.5-1.3-0.5H37c-0.5,0-0.9,0.2-1.3,0.5c-0.4,0.4-0.5,0.8-0.5,1.3v14.7c0,0.5,0.2,0.9,0.5,1.3
		s0.8,0.5,1.3,0.5h22c0.5,0,0.9-0.2,1.3-0.5S60.8,44.8,60.8,44.3z M71.8,55.3v-3.7c0-0.5-0.2-0.9-0.5-1.3s-0.8-0.5-1.3-0.5h-3.7
		c-0.5,0-0.9,0.2-1.3,0.5s-0.5,0.8-0.5,1.3v3.7c0,0.5,0.2,0.9,0.5,1.3s0.8,0.5,1.3,0.5H70c0.5,0,0.9-0.2,1.3-0.5
		S71.8,55.8,71.8,55.3z M71.8,44.3v-3.7c0-0.5-0.2-0.9-0.5-1.3c-0.4-0.4-0.8-0.5-1.3-0.5h-3.7c-0.5,0-0.9,0.2-1.3,0.5
		c-0.4,0.4-0.5,0.8-0.5,1.3v3.7c0,0.5,0.2,0.9,0.5,1.3s0.8,0.5,1.3,0.5H70c0.5,0,0.9-0.2,1.3-0.5S71.8,44.8,71.8,44.3z M71.8,33.3
		v-3.7c0-0.5-0.2-0.9-0.5-1.3c-0.4-0.4-0.8-0.5-1.3-0.5h-3.7c-0.5,0-0.9,0.2-1.3,0.5c-0.4,0.4-0.5,0.8-0.5,1.3v3.7
		c0,0.5,0.2,0.9,0.5,1.3s0.8,0.5,1.3,0.5H70c0.5,0,0.9-0.2,1.3-0.5S71.8,33.8,71.8,33.3z M75.5,28.8v38.5c0,1.3-0.4,2.3-1.3,3.2
		c-0.9,0.9-2,1.3-3.2,1.3H25.1c-1.3,0-2.3-0.4-3.2-1.3c-0.9-0.9-1.3-2-1.3-3.2V28.8c0-1.3,0.4-2.3,1.3-3.2c0.9-0.9,2-1.3,3.2-1.3
		h45.8c1.3,0,2.3,0.4,3.2,1.3C75.1,26.4,75.5,27.5,75.5,28.8z"/>
</g>
</svg>
